# xmcd
#
# Track frame offsets: 
#        150
#        20000
#        37962
#
# Disc length: 802 seconds
#
# Revision: 3
# Processed by: cddbd v1.5.2PL0 Copyright (c) Steve Scherf et al.
# Submitted via: ExactAudioCopy v1.3
#
DISCID=1b032003
DTITLE=劉德華 - 再一次擁抱
DYEAR=1996
DGENRE=misc
TTITLE0=再一次擁抱
TTITLE1=情深的一句(劇場版)
TTITLE2=情未鳥(未了情版)
EXTD=YEAR: 1996
EXTT0=
EXTT1=
EXTT2=
PLAYORDER=
